<?xml version="1.0" encoding="UTF-8"?>
<svg id="Layer_2" data-name="Layer 2" xmlns="http://www.w3.org/2000/svg" viewBox="0 0 618.41 343.24">
  <g id="Livello_1" data-name="Livello 1">
    <path d="M548.65,57.19c-11.96-7.83-25.14-14.86-39.31-21.08C387.43-17.42,193.06-11.31,85.34,53.57c-5.73,3.19-10.84,6.38-15.3,10.2C31.21,91.16,0,125.92,0,172.04c0,36.38,22.14,68.98,52.03,94.61,1.21-.8,2.39-1.63,3.53-2.48,4.52-3.37,8.32-7.07,10.5-10.22-31.01-21.38-53.97-48.17-53.97-81.91,0-36.55,26.75-65.58,62.41-87.88,6.31-3.71,13.04-7.42,20.2-11h.02c1.32-.66,2.66-1.32,4.01-1.97.73-.35,1.45-.7,2.19-1.05-.7.64-1.4,1.3-2.09,1.96-13.67,13.38-20.36,29.67-20.36,49.15s7.85,34.32,24.13,45.08c4.95,3.19,10.47,6.4,16.29,9.01l-37.22,84.33c-.53,1.03-1.15,2.08-1.86,3.13-3.31,4.93-8.45,9.97-14.47,14.45-6.01,4.5-12.9,8.44-19.73,11.2-1.46.29-2.04,1.16-2.04,2.33,0,2.9,2.04,4.36,5.82,4.36,12.47,0,23.76-1.72,33.82-5.72,7.83-3.1,14.9-7.58,21.19-13.69,2.21-2.14,4.33-4.5,6.35-7.05,3.49-4.37,8.14-12.21,11.05-18.32l27.91-65.72,40.71-2.03h1.16c1.75,0,2.62.87,2.62,2.61v44.48c0,19.86,7.94,36.3,23.25,48.78,7.38,6.24,15.88,10.77,24.96,13.9.63.25,1.21.51,1.78.73.71.28,1.41.52,2.19.69,8.79,2.55,25.66,3.97,35.87,3.97,29.21,0,54.56-9.49,75.46-30.91,24.46,15.18,51.87,22.9,73.76,26.83,8.27,1.49,15.76,2.44,22,3.04-.89.22-1.79.45-2.69.67-103.96,25.62-237.41,20.16-330.17-14.64l-4.84,4.7c-4.66,4.52-9.8,8.45-15.37,11.7,105.48,54.87,278.15,57.94,394.84,12.5,13.07-5.09,25.44-10.78,36.93-17.09,52.11-28.57,86.22-69.55,86.22-122.52,0-48.62-27.05-86.88-69.76-114.85ZM499.82,61.84c-5.81-2.29-11.78-4.46-17.92-6.52,6.55.99,12.53,3.17,17.92,6.52ZM194.21,161.73l-.29,4.95c-.29,2.62-1.45,3.78-3.2,3.78l-17.44,1.16c-31.99,0-51.19-7.34-57.88-30.02-2.03-7.27-3.19-15.41-3.19-24.72,0-18.03,5.82-31.99,16.86-42.45,5.61-5.17,12.13-9.07,19.43-11.64,7.07-2.51,14.88-3.76,23.32-3.76h4.65c1.16,0,2.62.29,4.07.29h4.36c1.45.29,3.49.29,5.82.29s3.49.87,3.49,2.9v99.22ZM485.42,287.08c.82-.35,1.62-.69,2.42-1.04,2.71-.88,5.42-1.79,8.07-2.75-3.17,1.54-6.67,2.79-10.49,3.79ZM505.6,275.95c-9.01,7.56-19.77,11.62-32.57,11.62-.36,0-.72,0-1.08-.01-.05,0-.1,0-.15,0-.05,0-.11,0-.17,0-.12,0-.25,0-.38,0-.07,0-.14,0-.21-.01-2.2-.1-6.89-.42-13.23-1.41-.96-.15-1.95-.32-2.98-.5-.51-.09-1.02-.18-1.54-.28-.21-.04-.44-.08-.66-.13-.31-.06-.63-.12-.95-.18-.28-.05-.55-.12-.82-.17-.34-.07-.69-.14-1.04-.22-.41-.08-.84-.18-1.27-.26-.93-.21-1.89-.43-2.86-.67-.29-.08-.6-.14-.9-.22-2.44-.61-4.99-1.3-7.63-2.1-1.04-.31-2.09-.65-3.15-.99-.56-.18-1.14-.38-1.71-.57-.58-.2-1.15-.39-1.73-.6-.58-.21-1.16-.42-1.75-.64-.59-.21-1.18-.43-1.77-.66-.59-.22-1.18-.46-1.78-.69-.5-.2-.99-.4-1.49-.6-.13-.05-.26-.11-.39-.16-.05-.02-.09-.03-.13-.06-.54-.21-1.07-.43-1.6-.66-.7-.3-1.41-.61-2.12-.93-.5-.22-1-.45-1.51-.69-2.45-1.12-4.93-2.36-7.41-3.68-.55-.3-1.11-.6-1.66-.9-.15-.08-.3-.16-.45-.25-.54-.3-1.08-.61-1.62-.92-.62-.36-1.24-.72-1.86-1.09-9.92-5.91-19.84-13.56-28.88-23.43,6.81-11.91,13.33-26.94,19.85-44.81,7.09-19,16.17-27.51,35.73-31.48v-1.14h-66.64v1.14c17.58,3.12,24.1,11.06,24.1,24.96s-5.39,30.35-16.16,47.93l-15.88-19-41.69-52.18c-3.91-4.83-7.49-9.41-10.7-13.76l3.99,5.26c19.85-1.99,37.32-6.88,50.36-16.81,13.05-9.92,23.57-27.16,23.57-45.87,0-14.18-5.68-26.37-17.02-36.87-11.06-10.5-26.09-15.6-44.52-15.6s-34.6,6.52-46.51,19c-11.91,12.47-17.87,28.07-17.87,47.36,0,15.34,4.31,31.94,12.96,49.91-7.6,1.18-17.35,3.37-25.63,6.09v20.74c.35-.6.7-1.18,1.06-1.76,5.1-9.64,13.87-16.61,27.08-20.05,7.5,14.46,17.76,29.79,30.76,46.02,11.16,13.32,22.34,27.26,33.03,37.43,2.99,2.86,5.84,5.21,8.69,7.38.07.05.15.12.22.17,2.92,2.22,5.83,4.24,8.91,6.4-14.74,14.18-34.4,23.2-54.82,23.2s-36.58-6.52-49.63-19.57c-4.82-4.82-10.47-9.98-13.77-15.67-4.8-8.27-7.48-17.72-8.15-28.28h-.09v-1.5c-.06-1.29-.09-2.59-.09-3.9,0-1.01.03-2.02.09-3V50.29h-71.45c.71-.2,1.43-.4,2.15-.58,88.73-24.15,201.9-25.21,292.55-3.19,1.28.31,2.55.62,3.82.94-10.14,2.35-19.47,6.97-27.92,13.89-13.09,10.17-19.49,23.55-19.49,39.54s5.82,31.12,17.74,44.2c7.27,8.43,17.45,16.86,29.95,25.59,12.79,8.43,22.39,15.12,29.08,19.77,23.56,17.16,35.47,35.47,35.47,55.24,0,12.51-4.65,22.4-13.67,30.25ZM304.66,155.43l-.07-.09c-7.68-10.38-13.35-19.41-16.93-27.17-5.11-10.77-7.38-21.54-7.38-32.32,0-25.81,16.45-44.81,40.83-44.81s38.57,16.45,38.57,47.64-25.03,51.55-55.09,56.66c.02.03.05.06.07.09ZM299.91,155.43l-.07-.09h0s.05.06.07.09ZM569.72,242.31c-8.12,6.77-17.23,13.02-27.03,18.78-1.16.69-2.34,1.37-3.53,2.03,4.75-8.39,7.15-18.07,7.15-29.04-1.17-17.16-7.57-32.86-19.49-46.52-7.56-9.02-20.36-19.78-38.38-32.56-6.98-4.66-13.67-9.6-20.06-14.26-6.69-4.95-12.51-9.88-17.73-15.12-4.95-5.24-9.31-10.76-12.22-17.16-3.2-6.11-4.65-13.08-4.65-21.52s4.07-15.7,12.5-21.81c8.44-6.1,17.46-9.31,26.75-9.31,15.71,0,29.66,6.11,42.17,18.32,5.23,4.95,9.01,10.18,11.34,15.41.58,1.47,1.46,2.63,2.03,4.08.58,1.45,1.16,2.62,1.45,3.78.59.87.88,1.74,1.46,2.03.58.58,1.45.87,3.2.87s2.61-.29,2.61-.87c0-.88,0-2.33-.58-4.36l-2.03-16.9c.52.29,1.05.58,1.57.88.52.28,1.01.58,1.53.86.69.39,1.38.8,2.07,1.21,4.33,2.54,8.54,5.18,12.59,7.91,32.29,21.75,55.15,49.65,55.15,83.01,0,27.91-14.96,51.15-37.87,70.27Z" style="fill: #1d1d1b;"/>
  </g>
</svg>